<svg xmlns="http://www.w3.org/2000/svg" width="32" height="32" viewBox="0 0 24 24" fill="none" stroke="#6E775D" stroke-width="2" stroke-linecap="round" stroke-linejoin="round" class="lucide lucide-brain"><path d="M12 5a3 3 0 1 0-5.997.125 4 4 0 0 0-2.526 5.77 4 4 0 0 0 .556 6.588A4 4 0 1 0 12 18Z"/><path d="M12 5a3 3 0 1 1 5.997.125 4 4 0 0 1 2.526 5.77 4 4 0 0 1-.556 6.588A4 4 0 1 1 12 18Z"/><path d="M15 13a4.5 4.5 0 0 1-3-4 4.5 4.5 0 0 1-3 4"/><path d="M17.599 6.5A3 3 0 0 0 13.6 4.6"/><path d="M6.401 6.5A3 3 0 0 1 10.4 4.6"/><path d="M6.082 16.208a4.265 4.265 0 0 1-1.082-3.208A4.265 4.265 0 0 1 6.082 9.792"/><path d="M17.918 16.208a4.265 4.265 0 0 0 1.082-3.208A4.265 4.265 0 0 0 17.918 9.792"/></svg>
